<?xml version="1.0" encoding="utf-8"?>
<!-- Generator: Adobe Illustrator 24.3.0, SVG Export Plug-In . SVG Version: 6.00 Build 0)  -->
<svg version="1.1" id="base" xmlns="http://www.w3.org/2000/svg" xmlns:xlink="http://www.w3.org/1999/xlink" x="0px" y="0px"
	 viewBox="0 0 1157.4 792.7" style="enable-background:new 0 0 1157.4 792.7;" xml:space="preserve">
<path id="academy" d="M436,775.4h-23v-2.8c2-0.1,3.7-0.4,5.1-0.8c1.3-0.4,2-0.9,2-1.4c0-0.2,0-0.5-0.1-0.9c-0.1-0.3-0.1-0.6-0.2-0.9
	l-4.6-12.4h-19.5c-0.7,1.8-1.3,3.4-1.8,4.8c-0.5,1.4-0.9,2.6-1.2,3.8c-0.3,1.1-0.6,2-0.7,2.7c-0.1,0.7-0.2,1.3-0.2,1.7
	c0,1,0.8,1.9,2.5,2.4c1.6,0.6,3.5,0.9,5.5,1v2.8h-20.9v-2.8c0.7-0.1,1.5-0.2,2.5-0.4c1-0.2,1.8-0.6,2.5-1c1-0.7,1.8-1.4,2.4-2.2
	c0.6-0.8,1.1-1.8,1.7-3.2c2.8-7,5.9-14.8,9.2-23.4c3.4-8.7,6.4-16.4,9-23.2h3.1l18.5,47.8c0.4,1,0.8,1.8,1.3,2.5
	c0.5,0.6,1.2,1.2,2.1,1.8c0.6,0.4,1.4,0.7,2.3,0.9c1,0.2,1.8,0.4,2.4,0.4V775.4z M413.7,752.7l-8.4-21.5l-8.3,21.5H413.7z
	 M466.8,776.4c-5.6,0-9.9-1.8-13.1-5.5c-3.2-3.7-4.7-8.7-4.7-14.9c0-2.7,0.4-5.2,1.3-7.6c0.8-2.4,2.1-4.5,3.7-6.4
	c1.5-1.8,3.5-3.3,5.8-4.5c2.3-1.1,4.8-1.7,7.6-1.7c3.8,0,6.9,0.9,9.2,2.7c2.4,1.8,3.6,4.3,3.6,7.4c0,1.3-0.3,2.5-0.9,3.5
	c-0.6,1-1.7,1.5-3.1,1.5c-1.5,0-2.7-0.4-3.6-1.2c-0.8-0.8-1.3-1.6-1.3-2.6c0-1.2,0.2-2.4,0.5-3.6c0.3-1.2,0.5-2.1,0.5-2.7
	c-0.5-0.8-1.2-1.3-2.1-1.6c-0.9-0.3-1.9-0.4-3-0.4c-1.2,0-2.4,0.3-3.6,0.8c-1.1,0.5-2.2,1.5-3.3,3c-1,1.3-1.7,3.1-2.3,5.3
	c-0.6,2.2-0.9,4.9-0.9,7.9c0,4.8,1.1,8.8,3.2,11.9c2.1,3.1,5,4.6,8.4,4.6c2.5,0,4.6-0.6,6.3-1.8c1.7-1.2,3.3-3.1,4.7-5.5l2.5,1.6
	c-1.7,3.1-4,5.5-6.8,7.3S469.8,776.4,466.8,776.4z M533.8,774.7c-1.2,0.4-2.3,0.8-3.2,1.1c-0.9,0.3-2,0.4-3.1,0.4
	c-2,0-3.7-0.5-4.9-1.4c-1.2-1-2-2.3-2.3-4.2H520c-1.7,1.9-3.5,3.3-5.5,4.3c-1.9,1-4.3,1.5-7,1.5c-2.9,0-5.3-0.9-7.1-2.7
	c-1.9-1.8-2.8-4.1-2.8-7c0-1.5,0.2-2.8,0.6-4c0.4-1.2,1-2.2,1.9-3.2c0.7-0.8,1.5-1.5,2.6-2.1c1.1-0.6,2.1-1.1,3-1.5
	c1.2-0.4,3.5-1.3,7.1-2.5c3.6-1.2,6-2.1,7.2-2.8v-3.9c0-0.3-0.1-1-0.2-2c-0.1-1-0.5-1.9-0.9-2.7c-0.5-1-1.3-1.8-2.2-2.5
	c-1-0.7-2.3-1.1-4-1.1c-1.2,0-2.3,0.2-3.3,0.6c-1,0.4-1.8,0.8-2.2,1.3c0,0.5,0.1,1.3,0.4,2.3c0.2,1,0.4,2,0.4,2.8
	c0,0.9-0.4,1.7-1.2,2.5c-0.8,0.8-2,1.1-3.4,1.1c-1.3,0-2.3-0.5-2.9-1.4c-0.6-0.9-0.9-2-0.9-3.1c0-1.2,0.4-2.3,1.3-3.4
	c0.8-1.1,1.9-2.1,3.3-2.9c1.2-0.7,2.6-1.3,4.3-1.9c1.7-0.5,3.3-0.8,4.9-0.8c2.2,0,4.1,0.2,5.7,0.5c1.6,0.3,3.1,0.9,4.4,1.9
	c1.3,1,2.3,2.3,3,3.9c0.7,1.7,1,3.8,1,6.4c0,3.7,0,7-0.1,9.9c-0.1,2.9-0.1,6-0.1,9.4c0,1,0.2,1.8,0.5,2.4c0.4,0.6,0.9,1.1,1.6,1.5
	c0.4,0.2,1,0.4,1.9,0.4c0.8,0,1.7,0,2.6,0V774.7z M520.2,754.1c-2.2,0.7-4.2,1.3-5.8,1.9s-3.2,1.4-4.7,2.3c-1.3,0.9-2.3,1.9-3.1,3.2
	s-1.1,2.7-1.1,4.3c0,2.2,0.6,3.8,1.7,4.8c1.1,1,2.6,1.5,4.3,1.5c1.8,0,3.5-0.5,4.9-1.4c1.4-0.9,2.6-2,3.6-3.2L520.2,754.1z
	 M591.9,774.7l-13.5,0.9l-0.6-0.5v-3.6l-0.3-0.1c-1.4,1.5-3,2.7-5,3.7c-2,1-4,1.4-6.1,1.4c-2.2,0-4.3-0.5-6.3-1.5
	c-2-1-3.8-2.3-5.3-4.1c-1.5-1.8-2.8-4-3.6-6.5c-0.9-2.5-1.3-5.3-1.3-8.4c0-2.8,0.5-5.4,1.4-7.9c1-2.5,2.3-4.7,4-6.6
	c1.6-1.7,3.5-3.1,5.8-4.2c2.3-1,4.7-1.6,7-1.6c1.8,0,3.6,0.2,5.3,0.7c1.7,0.5,3.2,1,4.5,1.7v-13.4c0-1.1-0.2-2.1-0.5-3
	s-0.9-1.6-1.5-2.1c-0.7-0.5-1.7-0.9-2.9-1.1c-1.2-0.2-2.6-0.4-4-0.5v-2.4l15.8-0.9l0.6,0.6v51.9c0,0.9,0.2,1.7,0.5,2.3
	c0.4,0.6,0.9,1.2,1.5,1.6c0.5,0.3,1.2,0.5,2.1,0.6c0.9,0.1,1.8,0.1,2.6,0.2V774.7z M577.7,767.9v-22.5c-0.2-0.7-0.5-1.4-1-2.2
	c-0.5-0.8-1.1-1.5-1.8-2.1c-0.8-0.7-1.6-1.2-2.7-1.6c-1-0.4-2.2-0.6-3.5-0.6c-1.6,0-3,0.4-4.3,1.2c-1.3,0.8-2.5,2-3.5,3.5
	c-1,1.5-1.7,3.3-2.3,5.6c-0.6,2.3-0.8,4.7-0.8,7.5c0,2.2,0.2,4.2,0.6,6c0.4,1.8,1.1,3.4,2.1,5c0.9,1.5,2.1,2.6,3.5,3.5
	c1.4,0.9,3.1,1.3,5.1,1.3c2.1,0,3.8-0.5,5.2-1.4C575.6,770,576.8,769,577.7,767.9z M641.9,766.3c-1.6,3.1-3.8,5.5-6.5,7.3
	c-2.7,1.8-5.8,2.7-9.3,2.7c-3.1,0-5.8-0.5-8.1-1.6c-2.3-1.1-4.3-2.6-5.8-4.5s-2.6-4.1-3.4-6.6c-0.7-2.5-1.1-5.1-1.1-7.9
	c0-2.5,0.4-5,1.2-7.4c0.8-2.4,2-4.6,3.5-6.5c1.5-1.8,3.3-3.3,5.5-4.5c2.2-1.1,4.7-1.7,7.4-1.7c2.8,0,5.2,0.4,7.2,1.3
	c2,0.9,3.6,2.1,4.9,3.6c1.2,1.5,2.1,3.2,2.7,5.2c0.6,2,0.9,4.1,0.9,6.4v2.6h-25.5c0,2.5,0.2,4.8,0.7,6.9c0.5,2.1,1.2,3.9,2.3,5.4
	c1,1.5,2.3,2.7,4,3.6c1.6,0.9,3.6,1.3,5.9,1.3c2.3,0,4.3-0.5,6-1.6c1.7-1.1,3.3-3,4.9-5.9L641.9,766.3z M633.2,751.6
	c0-1.5-0.1-3-0.4-4.7c-0.2-1.7-0.6-3.1-1.2-4.2c-0.6-1.2-1.4-2.2-2.5-2.9c-1-0.8-2.4-1.1-4-1.1c-2.7,0-5,1.1-6.8,3.4
	c-1.8,2.3-2.8,5.4-3,9.5H633.2z M724.3,775.4h-18.8v-2.6c0.6-0.1,1.2-0.1,1.8-0.2c0.6-0.1,1.2-0.2,1.6-0.3c0.7-0.2,1.3-0.6,1.6-1.2
	c0.4-0.6,0.5-1.3,0.5-2.3v-19.9c0-2.7-0.6-4.8-1.9-6.3c-1.2-1.5-2.8-2.2-4.6-2.2c-1.3,0-2.5,0.2-3.6,0.6c-1.1,0.4-2.1,0.9-3.1,1.6
	c-0.8,0.6-1.4,1.2-1.9,1.9c-0.5,0.7-0.9,1.2-1.2,1.7v22.2c0,0.9,0.2,1.7,0.5,2.2c0.3,0.6,0.8,1,1.6,1.3c0.6,0.2,1.1,0.4,1.6,0.5
	c0.5,0.1,1.1,0.2,1.9,0.3v2.6h-18.4v-2.6c0.6-0.1,1.2-0.1,1.7-0.2c0.6-0.1,1.1-0.2,1.5-0.3c0.7-0.2,1.3-0.6,1.6-1.2
	c0.4-0.6,0.5-1.3,0.5-2.3v-19.9c0-2.7-0.6-4.8-1.9-6.3c-1.2-1.5-2.8-2.2-4.6-2.2c-1.3,0-2.5,0.2-3.6,0.6c-1.1,0.4-2.2,1-3.1,1.7
	c-0.8,0.6-1.4,1.2-1.9,1.9c-0.5,0.7-0.9,1.3-1.2,1.6v22.1c0,0.9,0.2,1.6,0.5,2.2c0.4,0.6,0.9,1.1,1.6,1.4c0.5,0.3,1.1,0.5,1.7,0.6
	c0.6,0.1,1.2,0.2,1.9,0.3v2.6h-18.7v-2.6c0.6-0.1,1.2-0.1,1.9-0.2c0.6-0.1,1.2-0.2,1.7-0.3c0.7-0.2,1.3-0.6,1.6-1.2
	c0.4-0.6,0.5-1.3,0.5-2.3v-23.9c0-0.8-0.2-1.6-0.6-2.2c-0.4-0.7-0.9-1.2-1.6-1.7c-0.5-0.3-1.1-0.6-1.8-0.8c-0.7-0.2-1.5-0.3-2.3-0.4
	v-2.6l12.9-0.9l0.5,0.5v5.5h0.3c0.7-0.7,1.4-1.4,2.4-2.3c0.9-0.9,1.8-1.6,2.6-2.1c0.9-0.6,2.1-1.1,3.4-1.6c1.4-0.4,2.8-0.6,4.4-0.6
	c2.5,0,4.7,0.7,6.4,2c1.8,1.3,3.1,3,3.9,4.9c0.9-0.9,1.8-1.7,2.5-2.4c0.7-0.7,1.7-1.4,2.8-2.2c1-0.7,2.2-1.2,3.5-1.6
	c1.3-0.4,2.8-0.6,4.5-0.6c3.3,0,5.8,1.1,7.7,3.2c1.9,2.1,2.8,5.4,2.8,9.8v19.6c0,0.9,0.2,1.7,0.5,2.2c0.3,0.6,0.8,1,1.6,1.3
	c0.6,0.2,1.2,0.4,1.8,0.5c0.6,0.1,1.2,0.2,2,0.3V775.4z M737.9,788c0-1.3,0.4-2.4,1.1-3.2c0.7-0.8,1.6-1.2,2.7-1.2
	c0.8,0,1.5,0.2,2.1,0.5c0.6,0.3,1.1,0.7,1.6,1.2c0.4,0.4,0.8,0.9,1.3,1.6c0.4,0.7,0.8,1.2,1.1,1.7c1.3-0.7,2.9-2.5,4.7-5.5
	c1.8-3,3.1-5.6,3.9-7.8c-2.5-6.2-4.7-11.7-6.7-16.6c-2-4.9-4.1-9.9-6.3-15.1c-0.5-1.2-1.3-2.1-2.5-2.8c-1.2-0.7-2.3-1.1-3.5-1.3
	v-2.6h17.6v2.7c-0.8,0-1.7,0.2-2.8,0.5c-1.1,0.3-1.6,0.6-1.6,1c0,0.2,0.1,0.4,0.2,0.8c0.1,0.4,0.3,0.7,0.4,1.1
	c1,2.6,2.5,6.3,4.5,11.1c2,4.9,3.6,8.7,4.7,11.7c1.2-2.8,2.4-5.7,3.7-8.6c1.3-3,2.7-6.5,4.2-10.6c0.2-0.5,0.4-1.2,0.8-2
	c0.3-0.9,0.5-1.6,0.5-2.2c0-0.7-0.6-1.3-1.8-1.9c-1.2-0.6-2.3-0.9-3.4-1.1v-2.5h14.3v2.4c-0.8,0.1-1.8,0.6-3.1,1.3
	c-1.3,0.8-2.2,1.9-2.9,3.3c-3.1,7.2-5.9,13.7-8.3,19.7c-2.4,5.9-4.2,10.3-5.5,13.1c-1.6,3.6-3.1,6.5-4.4,8.5c-1.3,2-2.5,3.7-3.8,4.8
	c-1.2,1.1-2.3,1.8-3.3,2.2c-1,0.4-2,0.6-3,0.6c-2,0-3.6-0.5-4.8-1.4C738.5,790.3,737.9,789.2,737.9,788z"/>
<path id="suzanne_egan" d="M37.4,671.2c2.5,0,5-0.3,7.5-1c2.5-0.7,4.7-1.7,6.6-3.1c1.9-1.4,3.5-3,4.7-5s1.8-4.3,1.8-6.8
	c0-3.1-0.8-5.9-2.4-8.3s-3.7-4.7-6.3-6.7c-2.6-2.1-5.6-4-9-5.7c-3.4-1.8-6.8-3.6-10.3-5.4c-3.5-1.8-6.9-3.7-10.3-5.7s-6.4-4.2-9-6.6
	c-2.6-2.4-4.7-5.1-6.3-8.1s-2.4-6.5-2.4-10.4c0-3.9,0.7-7.5,2.2-10.9c1.5-3.3,3.6-6.2,6.4-8.7c2.8-2.4,6.3-4.4,10.4-5.8
	c4.1-1.4,8.9-2.1,14.2-2.1c9.7,0,17.3,2,22.9,6.1c5.6,4.1,9.6,9.9,12.1,17.6l-8.8,4c-1-3.1-2.3-6-3.9-8.6c-1.6-2.6-3.5-4.8-5.7-6.7
	c-2.2-1.9-4.8-3.3-7.7-4.3c-2.9-1-6.1-1.5-9.7-1.5c-3.2,0-6,0.5-8.5,1.4c-2.4,0.9-4.4,2.1-6,3.5c-1.6,1.4-2.8,3.1-3.6,4.9
	s-1.2,3.7-1.2,5.6c0,2.7,0.8,5.1,2.5,7.4c1.7,2.2,3.8,4.3,6.5,6.3c2.7,2,5.8,3.9,9.2,5.8c3.5,1.8,7,3.7,10.6,5.6s7.1,3.9,10.6,5.9
	c3.5,2.1,6.5,4.3,9.2,6.7c2.7,2.4,4.9,5.1,6.5,8c1.7,2.9,2.5,6.1,2.5,9.7c0,4.1-0.8,7.8-2.3,11.4c-1.5,3.5-3.8,6.6-6.9,9.3
	c-3.1,2.7-6.9,4.8-11.5,6.3c-4.6,1.5-9.9,2.3-15.9,2.3c-4.9,0-9.3-0.5-13.1-1.6c-3.9-1.1-7.3-2.6-10.2-4.7c-3-2.1-5.5-4.6-7.6-7.5
	c-2.1-3-3.8-6.3-5.2-10.1l9.2-3.8c1.1,3.3,2.5,6.3,4.3,8.9c1.8,2.6,3.9,4.9,6.3,6.7s5.1,3.2,8.1,4.2C30.9,670.7,34,671.2,37.4,671.2
	z M90.2,573.3h17.1v66.2c0,4.3,0.7,8.4,2.2,12.3c1.5,3.8,3.6,7.2,6.4,10.1s6.1,5.2,10,6.8c3.9,1.7,8.3,2.5,13.1,2.5
	c4.9,0,9.3-0.8,13.2-2.5c3.9-1.7,7.2-3.9,10-6.8c2.7-2.9,4.8-6.2,6.3-10.1c1.5-3.8,2.2-7.9,2.2-12.3v-66.2h7.5v66.2
	c0,5.2-0.8,10.1-2.5,14.8s-4.3,8.7-7.9,12.2c-3.6,3.5-8.2,6.3-13.9,8.3s-12.4,3-20.3,3c-7,0-13.3-1-18.7-3s-10-4.8-13.6-8.3
	s-6.4-7.6-8.3-12.3c-1.9-4.7-2.8-9.7-2.8-14.9V573.3z M287.6,573.3l-73.8,95.4h73.8v6.6h-96.9v-2.6l71.6-92.9h-71.6v-6.6H287.6z
	 M342.4,571l48,104.4H373l-15.6-34.1h-43.7l-16.1,34.1H289L338.2,571H342.4z M316.7,634.7h37.6l-18.5-40.4L316.7,634.7z
	 M403.6,573.3h9.6l66.9,74.6h0.7v-74.6h7.5v104.4h-4l-72.4-83h-0.6v80.6h-7.7V573.3z M513.9,573.3h9.6l66.9,74.6h0.7v-74.6h7.5
	v104.4h-4l-72.4-83h-0.6v80.6h-7.7V573.3z M695.1,573.3v6.6h-53.8v36.5h36v6.6h-36v45.8h53.8v6.6h-70.9v-102H695.1z M829,573.3v6.6
	h-53.8v36.5h36v6.6h-36v45.8H829v6.6h-70.9v-102H829z M906.2,578.3c-6.2,0-11.8,1.1-17,3.3c-5.2,2.2-9.7,5.3-13.4,9.4
	c-3.8,4.1-6.7,9-8.8,14.7c-2.1,5.8-3.1,12.2-3.1,19.4s1.1,13.6,3.4,19.4c2.3,5.8,5.4,10.7,9.4,14.7s8.6,7.2,14,9.4
	c5.4,2.2,11.1,3.3,17.3,3.3c4.5,0,8.5-0.6,12.2-1.8c3.6-1.2,6.8-3,9.7-5.2V629h-19.3V623h36.4v44.9c-3,1.6-6,3-9,4.2
	c-3,1.2-6.3,2.3-9.8,3.1c-3.5,0.9-7.3,1.5-11.6,1.9c-4.2,0.4-9,0.6-14.3,0.6c-5.6,0-11-0.6-16.1-1.9c-5.1-1.3-9.8-3.1-14.1-5.3
	c-4.3-2.3-8.2-5.1-11.7-8.3c-3.5-3.2-6.5-6.8-8.9-10.7c-2.4-3.9-4.3-8.1-5.6-12.6s-2-9.1-2-13.9s0.6-9.4,1.9-14
	c1.3-4.5,3.1-8.8,5.4-12.8s5.2-7.7,8.6-11c3.4-3.3,7.2-6.2,11.5-8.6s8.9-4.3,13.9-5.6c5-1.3,10.3-2,16-2c5.4,0,10.4,0.7,15,2.2
	s8.7,3.4,12.5,5.8c3.8,2.4,7.1,5.2,10.1,8.4c2.9,3.2,5.4,6.5,7.5,9.9l-7.4,5c-4.3-8.3-9.1-14.3-14.4-18.2S913,578.3,906.2,578.3z
	 M1011.5,571l48,104.4h-17.4l-15.6-34.1h-43.7l-16.1,34.1h-8.6l49.1-104.4H1011.5z M985.8,634.7h37.6l-18.5-40.4L985.8,634.7z
	 M1072.8,573.3h9.6l66.9,74.6h0.7v-74.6h7.5v104.4h-4l-72.4-83h-0.6v80.6h-7.7V573.3z"/>
<path id="icon" d="M362.4,344.5c0,2.2-1.8,4-4,4s-4-1.8-4-4c0-2.2,1.8-4,4-4S362.4,342.3,362.4,344.5z M831.4,248
	c0,31.3-5.7,61.7-17,90.5c-0.8,1.5-2.5,5.2-2.5,5.2c0,0-0.5,0.8-0.5,0.8c-20.9,33.5-44.8,50.4-71.5,50.4c-8.5,0-15.3-2.1-20.3-6.3
	s-8.5-9.6-10.6-16.3c-2.1-6.7-3.1-13.6-3.1-20.8c0-3.4,0.2-6.8,0.5-10.1c-23.2,21.9-46.7,32.8-70.5,32.8l-4.8-0.2
	c-5.7,15.2-15.6,28.4-29.7,39.7c-14.1,11.3-29.8,20-47.1,26.2c-17.3,6.2-33.9,9.4-49.6,9.7c-22.8,0-41.8-4.8-57-14.4
	c-17.2-10.7-25.8-25.7-25.8-45.2c0-4.9,0.6-10.1,1.8-15.6c-10.4,13.7-20.5,20.6-30.4,20.6c-4.7,0-7-0.7-7-2.2c0-0.9,0.7-2,2-3.3
	c1.3-1.3,2.7-1.9,4.2-1.9c1.5,0.4,2.9,0.6,4.4,0.6c4.7,0,8.8-1.8,12.5-5.4c3.7-3.6,6.9-7.3,9.7-11.2
	c35.7-47.9,68.3-109.5,97.6-184.8c-8.4-17.7-12.9-38.2-13.6-61.4c0-12.1,1.6-22.3,4.7-30.4c3.1-8.1,7-14.3,11.6-18.4
	c4.6-4.1,9.2-6.2,13.7-6.2c4.8,0,9,2.4,12.6,7.1c3.6,4.7,5.4,11.9,5.4,21.5c0,10.9-8.6,39-25.8,84.2c4.8,10,11.4,20.5,19.8,31.4
	c8.4,10.9,17.5,22.1,27.4,33.6c10.3,12,20.1,24.1,29.5,36.3c9.4,12.2,17.2,24.3,23.3,36.4c6.1,12.1,9.2,23.7,9.2,34.9
	c0,3.7-0.4,7.4-1.2,11l6.2,0.2c23.8,0,46.6-11.4,68.3-34.3c0.2-1,0.4-2.1,0.7-3.1c2.3-8.7,5.1-15.6,8.5-20.8
	c3.4-5.2,7-8.9,10.8-11.2c3.8-2.3,7.4-3.4,10.7-3.4c3.2,0,5.9,0.9,8,2.8c2.1,1.9,3.2,4.4,3.2,7.6c0,11.5-11.5,21.2-34.4,29.2
	c-0.8,4.4-1.2,9.1-1.2,14c0,6.5,0.9,12.9,2.8,19.1c1.9,6.2,5,11.3,9.4,15.3c4.4,4,10.4,6,18,6c23,0,43.9-16,62.9-48
	c12.1-29.3,18.2-60.3,18.2-92.3c0-64.6-25.2-125.4-70.9-171.1C708.9,31.2,648.1,6,583.4,6S458,31.2,412.3,76.9
	c-45.7,45.7-70.9,106.5-70.9,171.1c0,16.4,1.7,32.8,4.9,48.8l-5.9,1.2c-3.3-16.3-5-33.2-5-50c0-66.2,25.8-128.5,72.6-175.4
	C454.9,25.8,517.2,0,583.4,0S712,25.8,758.8,72.6C805.7,119.5,831.4,181.8,831.4,248z M716.5,327.7c16.7-5.7,25-12.2,25-19.4
	c0-2-0.6-3.7-1.9-5.1c-1.3-1.4-2.9-2.1-4.9-2.1c-2.7,0-5.7,1.9-9.1,5.8c-3.4,3.9-6.4,10.7-8.9,20.4L716.5,327.7z M521.5,174.7
	c13.6-36.8,20.7-60.3,21.4-70.6c0-9.2-1.3-16-4-20.3c-2.7-4.3-5.7-6.5-9.2-6.5c-2.9,0-5.8,1.6-8.6,4.7c-2.8,3.1-5.1,7.9-7,14.3
	c-1.9,6.4-2.8,14.5-2.8,24.4C511.9,141.3,515.3,159.3,521.5,174.7z M624.1,373.5c-12.4-1.9-23.8-5.4-34.2-10.5
	c-10.4-5.1-20.4-10.7-30-16.7c-7.3-4.5-14.7-8.8-22-12.8c-15.1-8.1-28.9-12.2-41.6-12.2c-12.8,0-24.1,3.2-33.9,9.7
	c-9.8,6.5-17.5,14.7-23.1,24.8c-5.6,10.1-8.4,20.4-8.4,31.1c0,9.6,2.6,18.7,7.8,27.3c5.2,8.6,13.5,15.6,24.9,20.9
	c11.4,5.3,26.6,8,45.5,8c14.4-0.3,29.6-3.2,45.5-8.9c15.9-5.7,30.3-13.7,43.2-24C610.7,399.8,619.5,387.6,624.1,373.5z M626.5,359.1
	c0-18.5-11-41.9-33-70.2c-9.6-12.1-19.5-24.1-29.6-36c-21.9-25.5-36.3-44.8-43.4-58c-18.1,45.7-39.7,89.8-64.8,132.2
	c12.5-8.8,26.5-13.2,41.8-13.2c7.3,0,15,1.2,23,3.5c8,2.3,15.7,5.5,23.1,9.4c7.4,3.9,14.7,8.2,21.9,12.7c9.2,5.7,18.7,11.1,28.6,16
	c9.9,4.9,20.5,8.4,31.8,10.4C626.3,363.6,626.5,361.3,626.5,359.1z"/>
</svg>
