<?xml version="1.0" encoding="utf-8"?>
<!-- Generator: Adobe Illustrator 24.3.0, SVG Export Plug-In . SVG Version: 6.00 Build 0)  -->
<svg version="1.1" id="base" xmlns="http://www.w3.org/2000/svg" xmlns:xlink="http://www.w3.org/1999/xlink" x="0px" y="0px"
	 viewBox="0 0 496 449.6" style="enable-background:new 0 0 496 449.6;" xml:space="preserve">
<path id="icon" d="M27,344.5c0,2.2-1.8,4-4,4s-4-1.8-4-4s1.8-4,4-4S27,342.3,27,344.5z M496,248c0,31.3-5.7,61.7-17,90.5
	c-0.8,1.5-2.5,5.2-2.5,5.2l-0.5,0.8c-20.9,33.5-44.8,50.4-71.5,50.4c-8.5,0-15.3-2.1-20.3-6.3s-8.5-9.6-10.6-16.3
	c-2.1-6.7-3.1-13.6-3.1-20.8c0-3.4,0.2-6.8,0.5-10.1c-23.2,21.9-46.7,32.8-70.5,32.8l-4.8-0.2c-5.7,15.2-15.6,28.4-29.7,39.7
	c-14.1,11.3-29.8,20-47.1,26.2s-33.9,9.4-49.6,9.7c-22.8,0-41.8-4.8-57-14.4c-17.2-10.7-25.8-25.7-25.8-45.2
	c0-4.9,0.6-10.1,1.8-15.6C77.9,388.1,67.8,395,57.9,395c-4.7,0-7-0.7-7-2.2c0-0.9,0.7-2,2-3.3s2.7-1.9,4.2-1.9
	c1.5,0.4,2.9,0.6,4.4,0.6c4.7,0,8.8-1.8,12.5-5.4s6.9-7.3,9.7-11.2c35.7-47.9,68.3-109.5,97.6-184.8c-8.4-17.7-12.9-38.2-13.6-61.4
	c0-12.1,1.6-22.3,4.7-30.4s7-14.3,11.6-18.4s9.2-6.2,13.7-6.2c4.8,0,9,2.4,12.6,7.1s5.4,11.9,5.4,21.5c0,10.9-8.6,39-25.8,84.2
	c4.8,10,11.4,20.5,19.8,31.4c8.4,10.9,17.5,22.1,27.4,33.6c10.3,12,20.1,24.1,29.5,36.3c9.4,12.2,17.2,24.3,23.3,36.4
	s9.2,23.7,9.2,34.9c0,3.7-0.4,7.4-1.2,11l6.2,0.2c23.8,0,46.6-11.4,68.3-34.3c0.2-1,0.4-2.1,0.7-3.1c2.3-8.7,5.1-15.6,8.5-20.8
	c3.4-5.2,7-8.9,10.8-11.2c3.8-2.3,7.4-3.4,10.7-3.4c3.2,0,5.9,0.9,8,2.8s3.2,4.4,3.2,7.6c0,11.5-11.5,21.2-34.4,29.2
	c-0.8,4.4-1.2,9.1-1.2,14c0,6.5,0.9,12.9,2.8,19.1c1.9,6.2,5,11.3,9.4,15.3s10.4,6,18,6c23,0,43.9-16,62.9-48
	c12.1-29.3,18.2-60.3,18.2-92.3c0-64.6-25.2-125.4-70.9-171.1C373.5,31.2,312.7,6,248,6S122.6,31.2,76.9,76.9S6,183.4,6,248
	c0,16.4,1.7,32.8,4.9,48.8L5,298c-3.3-16.3-5-33.2-5-50c0-66.2,25.8-128.5,72.6-175.4C119.5,25.8,181.8,0,248,0
	s128.6,25.8,175.4,72.6C470.3,119.5,496,181.8,496,248z M381.1,327.7c16.7-5.7,25-12.2,25-19.4c0-2-0.6-3.7-1.9-5.1
	c-1.3-1.4-2.9-2.1-4.9-2.1c-2.7,0-5.7,1.9-9.1,5.8c-3.4,3.9-6.4,10.7-8.9,20.4L381.1,327.7z M186.1,174.7
	c13.6-36.8,20.7-60.3,21.4-70.6c0-9.2-1.3-16-4-20.3c-2.7-4.3-5.7-6.5-9.2-6.5c-2.9,0-5.8,1.6-8.6,4.7s-5.1,7.9-7,14.3
	s-2.8,14.5-2.8,24.4C176.5,141.3,179.9,159.3,186.1,174.7z M288.7,373.5c-12.4-1.9-23.8-5.4-34.2-10.5s-20.4-10.7-30-16.7
	c-7.3-4.5-14.7-8.8-22-12.8c-15.1-8.1-28.9-12.2-41.6-12.2c-12.8,0-24.1,3.2-33.9,9.7s-17.5,14.7-23.1,24.8
	c-5.6,10.1-8.4,20.4-8.4,31.1c0,9.6,2.6,18.7,7.8,27.3c5.2,8.6,13.5,15.6,24.9,20.9s26.6,8,45.5,8c14.4-0.3,29.6-3.2,45.5-8.9
	c15.9-5.7,30.3-13.7,43.2-24C275.3,399.8,284.1,387.6,288.7,373.5z M291.1,359.1c0-18.5-11-41.9-33-70.2
	c-9.6-12.1-19.5-24.1-29.6-36c-21.9-25.5-36.3-44.8-43.4-58c-18.1,45.7-39.7,89.8-64.8,132.2c12.5-8.8,26.5-13.2,41.8-13.2
	c7.3,0,15,1.2,23,3.5s15.7,5.5,23.1,9.4c7.4,3.9,14.7,8.2,21.9,12.7c9.2,5.7,18.7,11.1,28.6,16c9.9,4.9,20.5,8.4,31.8,10.4
	C290.9,363.6,291.1,361.3,291.1,359.1z"/>
</svg>
